<?xml version="1.0" encoding="UTF-8"?>
<svg xmlns="http://www.w3.org/2000/svg" xmlns:xlink="http://www.w3.org/1999/xlink" viewBox="0 0 48 48" width="48px" height="48px">
<g id="surface21157428">
<path style=" stroke:none;fill-rule:nonzero;fill:rgb(100%,100%,100%);fill-opacity:1;" d="M 47.777344 8.15625 C 47.644531 8.050781 47.480469 7.992188 47.3125 8 C 46.847656 8 46.25 8.3125 45.925781 8.484375 L 45.796875 8.546875 C 45.257812 8.808594 44.667969 8.957031 44.066406 8.984375 C 43.453125 9.003906 42.921875 9.039062 42.230469 9.109375 C 38.140625 9.53125 36.316406 12.667969 34.558594 15.699219 C 33.601562 17.351562 32.613281 19.0625 31.257812 20.371094 C 30.976562 20.644531 30.679688 20.898438 30.363281 21.128906 C 28.964844 22.171875 27.203125 22.917969 25.832031 23.445312 C 24.511719 23.949219 23.074219 24.402344 21.683594 24.839844 C 20.40625 25.242188 19.203125 25.621094 18.097656 26.03125 C 17.597656 26.214844 17.175781 26.359375 16.800781 26.484375 C 15.792969 26.808594 15.066406 27.0625 14.003906 27.792969 C 13.589844 28.074219 13.171875 28.382812 12.890625 28.609375 C 12.050781 29.28125 11.304688 30.070312 10.675781 30.945312 C 10.136719 31.753906 9.511719 32.503906 8.8125 33.179688 C 8.589844 33.398438 8.191406 33.507812 7.59375 33.507812 C 6.898438 33.507812 4.984375 33 3.699219 33 C 1.988281 33 0.207031 33.628906 0 34 C 0 34 2.910156 35.894531 3.015625 35.996094 C 2.902344 36.160156 1.195312 38.5 1.011719 39.007812 C 3.507812 39.070312 4.96875 38.699219 6.367188 38.023438 C 6.773438 37.828125 7.1875 37.625 7.675781 37.417969 C 8.496094 37.0625 9.375 36.496094 10.308594 35.898438 C 11.53125 35.101562 12.8125 34.285156 14.050781 33.890625 C 15.070312 33.578125 16.132812 33.429688 17.199219 33.445312 C 18.507812 33.445312 19.886719 33.621094 21.214844 33.792969 C 22.203125 33.921875 23.992188 33.941406 25 34 C 25.269531 34.015625 26.839844 34.035156 27.945312 34.027344 C 26.757812 36.640625 25 39 25 39 C 25 39 31 39 33.546875 33.21875 C 33.582031 33.152344 33.609375 33.082031 33.644531 33.015625 C 35.222656 32.640625 39.273438 30.503906 40.351562 24.609375 C 40.855469 22.898438 41.222656 21.199219 41.550781 19.703125 C 41.9375 17.902344 42.273438 16.359375 42.660156 15.761719 C 43.261719 14.820312 44.183594 14.1875 45.074219 13.570312 C 45.195312 13.484375 45.320312 13.40625 45.4375 13.316406 C 46.558594 12.53125 47.675781 11.621094 47.921875 9.929688 L 47.921875 9.890625 C 48.097656 8.625 47.949219 8.304688 47.777344 8.15625 Z M 47.777344 8.15625 "/>
</g>
</svg>
